<svg width="94" height="94" viewBox="0 0 94 94" fill="none" xmlns="http://www.w3.org/2000/svg">
<g clip-path="url(#clip0_2266_742)">
<path d="M36.0331 39.1665C38.5585 39.1665 42.7447 41.9928 44.0309 44.5668C44.3066 45.1167 44.8581 45.4332 45.4346 45.4332C45.6696 45.4332 45.9093 45.3799 46.1334 45.2687C46.9073 44.8817 47.2206 43.9402 46.8337 43.1662C45.0007 39.5002 39.7508 36.0332 36.0315 36.0332C35.1651 36.0332 34.4648 36.7351 34.4648 37.5999C34.4648 38.4647 35.1667 39.1665 36.0331 39.1665Z" fill="white"/>
<path d="M70.5 46.9999C68.891 46.9999 67.3197 47.1644 65.8 47.473V9.05053C65.8 8.33456 65.5462 7.64053 65.0981 7.11413L60.2697 1.25479C59.7151 0.587393 58.8926 0.178493 58.0137 0.131493C57.1066 0.0860596 56.2653 0.404093 55.6402 1.01039L51.6781 4.80173L47.6314 0.88506C46.4203 -0.288374 44.4495 -0.288374 43.2369 0.88506L39.1447 4.80173L35.098 0.88506C33.887 -0.288374 31.9161 -0.288374 30.7035 0.88506L26.6114 4.80173L22.5631 0.883493C21.3521 -0.28994 19.3812 -0.28994 18.1686 0.883493L14.0765 4.80016L10.1598 1.01039C9.5363 0.404093 8.68873 0.089193 7.78633 0.131493C6.90587 0.178493 6.08493 0.58896 5.5272 1.25949L0.715967 7.09689C0.2538 7.64053 0 8.33613 0 9.05053V75.3503C0 78.7233 2.8106 81.4666 6.26667 81.4666H49.7323C53.6803 88.9114 61.5026 93.9999 70.5 93.9999C83.4579 93.9999 94 83.4578 94 70.4999C94 57.542 83.4579 46.9999 70.5 46.9999ZM6.26667 78.3332C4.53863 78.3332 3.13333 76.9953 3.13333 75.3503L3.11923 9.10693L7.98217 3.26169L11.8988 7.05303C13.113 8.22803 15.087 8.22803 16.3027 7.05303L20.3855 3.13636L24.4322 7.05459C25.6463 8.22959 27.6203 8.22959 28.8361 7.05459L32.9188 3.13793L36.9655 7.05616C38.1797 8.23116 40.1537 8.23116 41.3694 7.05616L45.4521 3.13949L49.4988 7.05773C50.713 8.23273 52.687 8.23116 53.9027 7.05773L57.8554 3.25856L62.6667 9.05679V48.3707C60.8117 49.0287 59.0555 49.8935 57.4465 50.9714C56.6726 50.4497 55.7702 50.1332 54.8333 50.1332H54.7534C54.0939 40.8758 47.6815 33.1944 39.0664 30.6643C39.1087 30.3666 39.1651 30.0736 39.1651 29.7666C39.1651 26.3105 36.3545 23.4999 32.8984 23.4999C29.4424 23.4999 26.6318 26.3105 26.6318 29.7666C26.6318 30.0736 26.6882 30.3682 26.7305 30.6643C18.1154 33.1944 11.703 40.8742 11.0434 50.1332H10.9635C9.69297 50.1332 8.5117 50.6299 7.66257 51.5025C6.76017 52.3798 6.26353 53.5627 6.26353 54.8332C6.26353 57.4245 8.37227 59.5332 10.9635 59.5332H49.7323C47.9948 62.8107 47 66.5394 47 70.4999C47 73.2494 47.4998 75.8783 48.3708 78.3332H6.26667ZM51.7439 56.3999H10.9667C10.1019 56.3999 9.4 55.6965 9.4 54.8332C9.4 54.4149 9.56137 54.0295 9.8794 53.7178C10.1645 53.4264 10.5499 53.2666 10.9667 53.2666H54.5764C53.5408 54.2238 52.5946 55.2719 51.7439 56.3999ZM29.7667 29.7666C29.7667 28.0385 31.172 26.6332 32.9 26.6332C34.628 26.6332 36.0333 28.0385 36.0333 29.7666C36.0333 29.8512 36.013 29.9295 36.0067 30.0125C34.9884 29.8668 33.9575 29.7666 32.9 29.7666C31.8425 29.7666 30.8116 29.8668 29.7933 30.0125C29.787 29.9295 29.7667 29.8512 29.7667 29.7666ZM32.9 32.8999C42.7387 32.8999 50.8195 40.4998 51.6201 50.1332H14.1799C14.9805 40.4998 23.0629 32.8999 32.9 32.8999ZM70.5 90.8666C59.2701 90.8666 50.1333 81.7298 50.1333 70.4999C50.1333 59.27 59.2701 50.1332 70.5 50.1332C81.7299 50.1332 90.8667 59.27 90.8667 70.4999C90.8667 81.7298 81.7299 90.8666 70.5 90.8666Z" fill="white"/>
<path d="M70.4999 53.2666C60.9981 53.2666 53.2666 60.9981 53.2666 70.4999C53.2666 80.0018 60.9981 87.7333 70.4999 87.7333C80.0018 87.7333 87.7333 80.0018 87.7333 70.4999C87.7333 60.9981 80.0018 53.2666 70.4999 53.2666ZM70.4999 84.5999C62.7246 84.5999 56.3999 78.2737 56.3999 70.4999C56.3999 62.7261 62.7246 56.3999 70.4999 56.3999C78.2753 56.3999 84.5999 62.7261 84.5999 70.4999C84.5999 78.2737 78.2753 84.5999 70.4999 84.5999Z" fill="white"/>
<path d="M72.0669 68.9332V61.0999C72.0669 60.2351 71.3666 59.5332 70.5003 59.5332C69.6339 59.5332 68.9336 60.2351 68.9336 61.0999V70.4999C68.9336 71.3647 69.6339 72.0665 70.5003 72.0665H79.9003C80.7666 72.0665 81.4669 71.3647 81.4669 70.4999C81.4669 69.6351 80.7666 68.9332 79.9003 68.9332H72.0669Z" fill="white"/>
</g>
<defs>
<clipPath id="clip0_2266_742">
<rect width="94" height="94" fill="white"/>
</clipPath>
</defs>
</svg>
