<svg width="85" height="85" viewBox="0 0 85 85" fill="none" xmlns="http://www.w3.org/2000/svg">
<g clip-path="url(#clip0_2035_2818)">
<path d="M83.5537 66.7117L82.3411 57.0111L81.0156 1.29758L80.9824 1.29891C80.9758 1.01734 80.912 0.738438 80.7341 0.512656C80.483 0.188594 80.0966 0 79.6875 0H26.5625C25.9529 0 25.4216 0.415703 25.2742 1.00672L22.618 11.6317C22.5184 12.0288 22.6087 12.4485 22.8597 12.7699C23.0908 13.0661 23.4387 13.2308 23.8106 13.2587L22.1106 37.1875H6.00313C4.79719 37.1875 3.73469 37.9937 3.42258 39.1438L0.104922 51.0863C-0.122188 51.8832 0.0345313 52.7199 0.536563 53.3853C1.04789 54.064 1.83016 54.4531 2.68281 54.4531H2.7718L3.86219 66.4062H2.65625C1.19133 66.4062 0 67.5976 0 69.0625V82.3438C0 83.8087 1.19133 85 2.65625 85H82.3438C83.8087 85 85 83.8087 85 82.3438V69.0625C85 68.0359 84.409 67.154 83.5537 66.7117ZM78.5945 11.1788L79.6875 57.1399C79.6875 57.1851 79.6915 57.2289 79.6968 57.2741L80.839 66.4062H73.2222L74.3723 57.1877L76.9556 13.2812H77.0312C77.6409 13.2812 78.1721 12.8655 78.3195 12.2745L78.5945 11.1788ZM75.994 10.625H57.1094V2.65625H77.9862L75.994 10.625ZM46.4844 2.65625H54.4531V13.7886L53.7187 13.422C53.3455 13.2348 52.9045 13.2348 52.53 13.422L50.4688 14.4527L48.4062 13.422C48.033 13.2348 47.592 13.2348 47.2175 13.422L46.4844 13.7886V2.65625ZM26.4722 13.2812H41.1719C41.905 13.2812 42.5 12.6876 42.5 11.9531C42.5 11.2187 41.905 10.625 41.1719 10.625H25.6076L27.5998 2.65625H43.8281V15.9375C43.8281 16.3984 44.0672 16.8247 44.4577 17.0677C44.8495 17.3108 45.3395 17.3307 45.7499 17.1262L47.8125 16.0942L49.8751 17.1248C50.2483 17.3121 50.6892 17.3121 51.0638 17.1248L53.125 16.0942L55.1876 17.1248C55.3748 17.2191 55.578 17.2656 55.7812 17.2656C56.0243 17.2656 56.266 17.1992 56.4798 17.0677C56.8703 16.8247 57.1094 16.3984 57.1094 15.9375V13.2812H74.2953L71.7294 56.9447L70.546 66.4062H41.2954L42.3858 54.4531H42.4748C43.3274 54.4531 44.1097 54.064 44.6223 53.3853C45.123 52.7199 45.2811 51.8819 45.0566 51.0956L41.7377 39.1491C41.4216 37.9937 40.3591 37.1875 39.1531 37.1875H24.7748L26.4722 13.2812ZM6.00313 39.8438L39.1757 39.8544L42.4734 51.7969H27.8906H17.2656H3.98438L2.66023 51.8075L6.00313 39.8438ZM18.5938 54.4531H26.5625V57.1094H18.5938V54.4531ZM15.9375 54.4531V57.1094C15.9375 58.5743 17.1288 59.7656 18.5938 59.7656H26.5625C28.0274 59.7656 29.2188 58.5743 29.2188 57.1094V54.4531H39.7043L38.5156 66.4062L6.52906 66.4049L5.44 54.4531H15.9375ZM82.3438 82.3438H2.65625V69.0625H6.52109H38.6352H49.1406V74.375H35.8594V71.7188C35.8594 70.9843 35.2644 70.3906 34.5312 70.3906C33.7981 70.3906 33.2031 70.9843 33.2031 71.7188V74.375C33.2031 75.8399 34.3945 77.0312 35.8594 77.0312H49.1406C50.6055 77.0312 51.7969 75.8399 51.7969 74.375V69.0625H82.3438V82.3438Z" fill="white"/>
</g>
<defs>
<clipPath id="clip0_2035_2818">
<rect width="85" height="85" fill="white"/>
</clipPath>
</defs>
</svg>
