<svg width="37" height="37" viewBox="0 0 37 37" fill="none" xmlns="http://www.w3.org/2000/svg">
<path d="M30.9875 10.6993C30.9875 11.5318 30.5404 12.2872 29.8312 12.6726L27.1487 14.1218L24.8671 15.3397L20.1341 17.8989C19.6254 18.1764 19.0704 18.3151 18.5 18.3151C17.9295 18.3151 17.3745 18.1764 16.8658 17.8989L7.1687 12.6726C6.45953 12.2872 6.01245 11.5318 6.01245 10.6993C6.01245 9.8668 6.45953 9.11134 7.1687 8.72592L10.2058 7.09176L12.6262 5.78138L16.8658 3.49975C17.8833 2.94475 19.1166 2.94475 20.1341 3.49975L29.8312 8.72592C30.5404 9.11134 30.9875 9.8668 30.9875 10.6993Z" fill="#999999" fill-opacity="0.25"/>
<path d="M15.2625 19.7179L6.24376 15.2008C5.55001 14.8463 4.74835 14.8925 4.08543 15.2933C3.42251 15.6942 3.03711 16.4034 3.03711 17.1742V25.6996C3.03711 27.1796 3.85417 28.5054 5.18 29.1683L14.1988 33.6701C14.5071 33.8242 14.8463 33.9013 15.1854 33.9013C15.5863 33.9013 15.9871 33.7934 16.3417 33.5621C17.0046 33.1613 17.39 32.4521 17.39 31.6813V23.1559C17.4054 21.7067 16.5883 20.3808 15.2625 19.7179Z" fill="#999999" fill-opacity="0.25"/>
<path d="M33.9628 17.1897V25.7151C33.9628 27.1797 33.1458 28.5055 31.8199 29.1684L22.8012 33.6855C22.4928 33.8396 22.1537 33.9168 21.8145 33.9168C21.4137 33.9168 21.0129 33.8089 20.6429 33.5776C19.9954 33.1768 19.5945 32.4676 19.5945 31.6968V23.1867C19.5945 21.7067 20.4116 20.3809 21.7374 19.718L25.052 18.0684L27.3645 16.9121L30.7562 15.2163C31.4499 14.8618 32.2516 14.8926 32.9145 15.3088C33.562 15.7097 33.9628 16.4189 33.9628 17.1897Z" fill="#999999" fill-opacity="0.25"/>
<path d="M27.1487 14.1216L24.8671 15.3396L10.2058 7.09163L12.6262 5.78125L26.7787 13.7671C26.9329 13.8596 27.0562 13.9829 27.1487 14.1216Z" fill="#F6A730"/>
<path d="M27.3645 16.9121V20.4117C27.3645 21.0438 26.8403 21.568 26.2083 21.568C25.5762 21.568 25.052 21.0438 25.052 20.4117V18.0684L27.3645 16.9121Z" fill="#F6A730"/>
</svg>
