<svg width="18" height="18" viewBox="0 0 18 18" fill="none" xmlns="http://www.w3.org/2000/svg">
<path d="M16.3472 5.65924L7.34717 14.6592C7.26878 14.7379 7.17564 14.8003 7.07308 14.8429C6.97052 14.8855 6.86056 14.9074 6.74951 14.9074C6.63846 14.9074 6.5285 14.8855 6.42594 14.8429C6.32339 14.8003 6.23024 14.7379 6.15185 14.6592L2.21435 10.7217C2.13587 10.6433 2.07361 10.5501 2.03113 10.4475C1.98866 10.345 1.9668 10.2351 1.9668 10.1241C1.9668 10.0131 1.98866 9.90318 2.03113 9.80063C2.07361 9.69809 2.13587 9.60491 2.21435 9.52643C2.29284 9.44794 2.38602 9.38568 2.48856 9.34321C2.59111 9.30073 2.70102 9.27887 2.81201 9.27887C2.92301 9.27887 3.03291 9.30073 3.13546 9.34321C3.23801 9.38568 3.33118 9.44794 3.40967 9.52643L6.75021 12.867L15.1533 4.46533C15.3118 4.30682 15.5268 4.21777 15.7509 4.21777C15.9751 4.21777 16.1901 4.30682 16.3486 4.46533C16.5071 4.62384 16.5961 4.83882 16.5961 5.06299C16.5961 5.28715 16.5071 5.50214 16.3486 5.66064L16.3472 5.65924Z" fill="#00BA81"/>
</svg>
