<svg width="198" height="198" viewBox="0 0 198 198" fill="none" xmlns="http://www.w3.org/2000/svg">
<g clip-path="url(#clip0_2045_518)">
<path d="M195.474 111.231C170.849 100.287 145.879 100.287 121.254 111.231C119.718 111.914 118.728 113.438 118.728 115.119V139.301C118.728 164.501 133.608 187.398 156.636 197.633C157.186 197.878 157.775 198 158.364 198C158.953 198 159.541 197.878 160.092 197.633C183.12 187.398 198 164.501 198 139.301V115.119C198 113.437 197.01 111.914 195.474 111.231ZM189.492 139.301C189.492 160.506 177.336 179.829 158.364 189.055C139.392 179.829 127.236 160.506 127.236 139.301V117.926C147.906 109.44 168.822 109.44 189.492 117.926V139.301Z" fill="#FFB621"/>
<path d="M148.863 147.493C147.201 145.831 144.508 145.831 142.846 147.493C141.185 149.154 141.185 151.848 142.846 153.509L151.186 161.849C152.017 162.679 153.105 163.095 154.194 163.095C155.282 163.095 156.371 162.679 157.202 161.849L173.881 145.169C175.543 143.508 175.543 140.814 173.881 139.153C172.22 137.491 169.527 137.491 167.865 139.153L154.193 152.824L148.863 147.493Z" fill="#FFB621"/>
<path d="M102.861 106.47V102.089C102.861 89.5789 95.4863 78.7628 84.8589 73.747C88.6789 70.1057 91.0665 64.9747 91.0665 59.2934C91.0665 48.2766 82.1039 39.314 71.0871 39.314C60.0702 39.314 51.1076 48.2766 51.1076 59.2934C51.1076 64.9747 53.4952 70.1061 57.3152 73.747C46.6878 78.7628 39.3135 89.5789 39.3135 102.089V106.47C39.3135 108.819 41.2181 110.724 43.5674 110.724H98.6067C100.956 110.724 102.861 108.819 102.861 106.47ZM71.0875 47.8218C77.4126 47.8218 82.5591 52.9678 82.5591 59.2934C82.5591 65.6186 77.413 70.765 71.0875 70.765C64.7619 70.765 59.6158 65.619 59.6158 59.2934C59.6158 52.9678 64.7619 47.8218 71.0875 47.8218ZM94.3528 102.216H47.8217V102.089C47.8217 89.5077 58.057 79.2725 70.6381 79.2725H71.5368C84.1179 79.2725 94.3532 89.5077 94.3532 102.089L94.3528 102.216Z" fill="white"/>
<path d="M47.499 157.9H94.6756C97.0249 157.9 98.9295 155.995 98.9295 153.646C98.9295 151.297 97.0249 149.392 94.6756 149.392H47.499C45.1497 149.392 43.2451 151.297 43.2451 153.646C43.2451 155.995 45.1493 157.9 47.499 157.9Z" fill="white"/>
<path d="M142.175 104.58V43.5677C142.174 42.4505 141.72 41.3499 140.929 40.5598L101.615 1.24601C100.825 0.454395 99.7239 0.00154688 98.6071 0H16.0481C7.19916 0 0 7.19916 0 16.0481V165.44C0 174.289 7.19916 181.488 16.0481 181.488H134.671C132.332 178.83 130.224 175.981 128.36 172.98H16.0481C11.8904 172.98 8.50781 169.598 8.50781 165.44V16.0481C8.50781 11.8904 11.8904 8.50781 16.0481 8.50781H94.3528V31.7736C94.3528 40.6225 101.552 47.8216 110.401 47.8216H133.667V106.657C136.5 105.823 139.336 105.126 142.175 104.58ZM110.401 39.3138C106.243 39.3138 102.861 35.9312 102.861 31.7736V14.5236L127.651 39.3138H110.401Z" fill="white"/>
<path d="M47.5007 134.312C49.8501 134.312 51.7546 132.407 51.7546 130.058C51.7546 127.708 49.8501 125.804 47.5007 125.804C45.1514 125.804 43.2468 127.708 43.2468 130.058C43.2468 132.407 45.1514 134.312 47.5007 134.312Z" fill="white"/>
<path d="M71.0867 134.312C73.436 134.312 75.3406 132.407 75.3406 130.058C75.3406 127.708 73.436 125.804 71.0867 125.804C68.7373 125.804 66.8328 127.708 66.8328 130.058C66.8328 132.407 68.7373 134.312 71.0867 134.312Z" fill="white"/>
<path d="M94.6764 134.311C97.0255 134.311 98.9299 132.407 98.9299 130.058C98.9299 127.709 97.0255 125.804 94.6764 125.804C92.3272 125.804 90.4229 127.709 90.4229 130.058C90.4229 132.407 92.3272 134.311 94.6764 134.311Z" fill="white"/>
</g>
<defs>
<clipPath id="clip0_2045_518">
<rect width="198" height="198" fill="white"/>
</clipPath>
</defs>
</svg>
