<svg width="19" height="19" viewBox="0 0 19 19" fill="none" xmlns="http://www.w3.org/2000/svg">
<path fill-rule="evenodd" clip-rule="evenodd" d="M0.66347 5.31145H18.578C18.7945 5.30588 18.9673 5.12961 18.9673 4.91345C18.9673 4.69729 18.7945 4.52011 18.578 4.51545H0.421793C0.205292 4.52009 0.0324693 4.69729 0.0324693 4.91345C0.0324693 5.12961 0.205297 5.30586 0.421793 5.31145H0.66347ZM18.1655 4.11933L14.9124 0.0697822C14.878 0.0233968 14.8232 -0.00258046 14.7665 0.000202993H4.23337C4.17669 -0.00258023 4.12187 0.0233959 4.08749 0.0697822L0.834366 4.11933H18.1655ZM7.83029 17.9851H18.1377V5.70771H0.86233V17.9851H1.667V7.67821L1.66607 7.67729C1.667 7.56874 1.75527 7.48154 1.86399 7.48154H7.63236C7.742 7.48154 7.83028 7.56967 7.83028 7.67914V17.986L7.83029 17.9851ZM7.83029 19H19V18.3803H7.83029V19ZM2.06287 19V7.87662H7.43352V19H2.06287ZM5.94397 10.9992C6.26267 11.3156 6.44202 11.7451 6.44202 12.1932V17.8458H3.05331V12.1932C3.05238 11.5095 3.46495 10.8925 4.09864 10.6309C4.73142 10.3693 5.45988 10.514 5.94397 10.9992ZM4.74812 10.1068C5.90125 10.1095 6.83506 11.0419 6.83879 12.1932V18.0444C6.83879 18.153 6.74959 18.242 6.63995 18.242H2.85637C2.74673 18.242 2.65845 18.153 2.65845 18.0444V12.1932C2.66124 11.0419 3.59499 10.1096 4.74812 10.1068ZM6.69569 8.72909V9.23192L2.80055 9.23099V8.72816L6.69569 8.72909ZM2.60169 8.33294H6.89265C7.00229 8.33294 7.09056 8.42108 7.09056 8.53055V9.42857C7.09056 9.53804 7.00229 9.62617 6.89265 9.62617H2.60169C2.49205 9.62617 2.40378 9.53804 2.40378 9.42857V8.53055C2.40378 8.47767 2.42422 8.42757 2.46139 8.39046C2.49855 8.35336 2.54873 8.33294 2.60169 8.33294ZM3.90256 14.1191L3.90814 14.1246V14.1237C3.93322 14.1552 3.93044 14.2007 3.90256 14.2295L3.89791 14.235H3.89699C3.88305 14.2462 3.86446 14.2527 3.84681 14.2527C3.82544 14.2527 3.805 14.2434 3.79106 14.2285L3.78548 14.2239C3.77433 14.2091 3.76783 14.1914 3.76783 14.1729C3.76783 14.1525 3.77619 14.133 3.79106 14.1181C3.82172 14.0875 3.87189 14.0875 3.90256 14.1181L3.90256 14.1191ZM4.27794 13.9762H4.74719C4.85684 13.9762 4.94511 14.0643 4.94511 14.1738C4.94511 14.2833 4.85684 14.3714 4.74719 14.3714H4.27982C4.25567 14.4224 4.22407 14.4697 4.18412 14.5096C4.17947 14.5143 4.17483 14.5189 4.17018 14.5226V14.5217C3.98341 14.6952 3.69258 14.6896 3.51232 14.5096C3.50768 14.505 3.50303 14.5004 3.49932 14.4957V14.4948C3.32556 14.3083 3.33206 14.018 3.51232 13.8389C3.69816 13.6534 3.99922 13.6534 4.18412 13.8389C4.18877 13.8435 4.19341 13.8482 4.19713 13.8537H4.19806C4.23151 13.8899 4.25938 13.9317 4.27983 13.9762L4.27794 13.9762ZM16.284 13.9576V13.9567C16.323 13.9576 16.3546 13.9892 16.3556 14.0282V14.3176C16.3546 14.3566 16.323 14.3881 16.284 14.389H9.63932C9.61981 14.389 9.60122 14.3816 9.58822 14.3677C9.57428 14.3547 9.56684 14.3362 9.56684 14.3167V14.0291C9.56684 14.0105 9.57428 13.992 9.58822 13.9781C9.60122 13.9651 9.61981 13.9577 9.63932 13.9577L16.284 13.9576ZM15.707 13.5615H10.2174C10.3614 12.156 11.547 11.0882 12.9622 11.0882C14.3764 11.0882 15.5621 12.156 15.707 13.5615ZM13.5243 10.7374C13.1517 10.6706 12.7717 10.6706 12.3991 10.7374C12.3907 10.6966 12.387 10.6558 12.387 10.615C12.387 10.2977 12.6444 10.0416 12.9622 10.0416C13.279 10.0416 13.5364 10.2977 13.5364 10.615C13.5364 10.6558 13.5327 10.6966 13.5243 10.7374ZM12.0163 10.8321C11.9494 10.5436 12.0172 10.2411 12.2021 10.0101C12.3861 9.77818 12.6658 9.64365 12.9622 9.64365C13.2577 9.64365 13.5383 9.77817 13.7222 10.0101C13.9062 10.2411 13.975 10.5436 13.9081 10.8321C15.1244 11.2152 15.9913 12.2923 16.1038 13.5614H16.2849C16.5432 13.5614 16.7533 13.771 16.7533 14.029V14.3184C16.7533 14.5763 16.5433 14.786 16.2849 14.7869H9.6393C9.51479 14.786 9.39586 14.7368 9.30852 14.6496L9.30759 14.6487V14.6478C9.21932 14.5606 9.17007 14.4418 9.17007 14.3184V14.029C9.17007 13.9056 9.22025 13.7868 9.30759 13.6996L9.30852 13.6987V13.6978C9.39679 13.6106 9.5148 13.5614 9.6393 13.5614H9.82049C9.93292 12.2923 10.7989 11.2152 12.0162 10.8311L12.0163 10.8321ZM1.66603 18.3799H0V18.9997H1.66695L1.66603 18.3799Z" fill="#999999"/>
</svg>
