<svg width="18" height="18" viewBox="0 0 18 18" fill="none" xmlns="http://www.w3.org/2000/svg">
<path d="M1.5 9C1.5 13.1423 4.85775 16.5 9 16.5C13.1423 16.5 16.5 13.1423 16.5 9C16.5 4.85775 13.1423 1.5 9 1.5C4.85775 1.5 1.5 4.85775 1.5 9ZM15 9C15 10.5913 14.3679 12.1174 13.2426 13.2426C12.1174 14.3679 10.5913 15 9 15C7.4087 15 5.88258 14.3679 4.75736 13.2426C3.63214 12.1174 3 10.5913 3 9C3 7.4087 3.63214 5.88258 4.75736 4.75736C5.88258 3.63214 7.4087 3 9 3C10.5913 3 12.1174 3.63214 13.2426 4.75736C14.3679 5.88258 15 7.4087 15 9ZM13.5 9C13.4999 9.73999 13.3173 10.4685 12.9684 11.1211C12.6196 11.7737 12.1151 12.3302 11.4998 12.7412C10.8845 13.1523 10.1773 13.4053 9.44088 13.4778C8.70445 13.5503 7.96151 13.4401 7.27785 13.1569C6.59419 12.8737 5.99093 12.4263 5.52148 11.8543C5.05203 11.2822 4.73089 10.6033 4.5865 9.87752C4.44211 9.15175 4.47893 8.40157 4.69369 7.69343C4.90846 6.98529 5.29454 6.34105 5.81775 5.81775L9 9V4.5C10.1935 4.5 11.3381 4.97411 12.182 5.81802C13.0259 6.66193 13.5 7.80653 13.5 9Z" fill="#00BA81"/>
</svg>
