<svg width="18" height="18" viewBox="0 0 18 18" fill="none" xmlns="http://www.w3.org/2000/svg">
<g clip-path="url(#clip0_2154_146)">
<path fill-rule="evenodd" clip-rule="evenodd" d="M8.66904 0.326429C8.41929 0.407429 8.27529 0.551429 8.20554 0.786554C8.16617 0.918179 8.15942 1.22418 8.15942 2.82168C8.15942 4.9378 8.15717 4.9108 8.37317 5.1268C8.66229 5.4148 9.33729 5.4148 9.62642 5.1268C9.84242 4.9108 9.84017 4.9378 9.84017 2.82168C9.84017 0.774178 9.83679 0.738179 9.67029 0.540179C9.53079 0.374804 9.38117 0.319679 9.04479 0.310679C8.91933 0.303571 8.79347 0.308847 8.66904 0.326429ZM3.09692 2.54943C2.91917 2.63043 2.65704 2.88693 2.56592 3.06918C2.51904 3.16016 2.49346 3.26061 2.49112 3.36294C2.48878 3.46526 2.50974 3.56677 2.55242 3.6598C2.63567 3.84543 5.25017 6.46893 5.45604 6.57355C5.74854 6.72355 6.04592 6.6508 6.34817 6.3553C6.64517 6.06505 6.72392 5.75005 6.57317 5.45643C6.46854 5.25055 3.84504 2.63605 3.65942 2.5528C3.57068 2.51452 3.47515 2.49449 3.37851 2.49391C3.28187 2.49333 3.1861 2.51221 3.09692 2.54943ZM14.4594 2.56743C14.321 2.63155 14.0848 2.85318 12.9575 3.9838C11.9214 5.02218 11.6053 5.35743 11.5547 5.46768C11.5128 5.55915 11.4913 5.65859 11.4915 5.75918C11.4916 5.85976 11.5136 5.95912 11.5558 6.05043C11.6345 6.21918 11.8933 6.48468 12.0677 6.5758C12.2443 6.66805 12.5064 6.66693 12.6898 6.57355C12.8777 6.4768 15.4764 3.87805 15.5732 3.69018C15.6191 3.59341 15.6432 3.48773 15.6438 3.38062C15.6444 3.2735 15.6214 3.16757 15.5765 3.0703C15.452 2.8621 15.2762 2.68934 15.0658 2.56855C14.9727 2.51836 14.8685 2.49199 14.7627 2.49179C14.6569 2.49159 14.5527 2.51758 14.4594 2.56743ZM0.786167 8.20368C0.454667 8.30793 0.289292 8.57305 0.290042 8.99905C0.291167 9.43443 0.453167 9.69543 0.785042 9.79443C0.917792 9.8338 1.21367 9.84055 2.82129 9.84055C4.49642 9.84055 4.72029 9.83493 4.85754 9.78993C4.95845 9.75696 5.05015 9.70066 5.12521 9.6256C5.20028 9.55054 5.25658 9.45883 5.28954 9.35793C5.38629 9.0598 5.33792 8.6368 5.18379 8.42755C5.12236 8.36002 5.04965 8.30368 4.96892 8.26105L4.81479 8.17555L2.86517 8.1688C1.29579 8.1643 0.889667 8.17105 0.786167 8.20368ZM13.2129 8.18793C13.0609 8.23 12.9234 8.31333 12.8158 8.42868C12.6617 8.6368 12.6133 9.0598 12.71 9.35793C12.7753 9.56043 12.9395 9.72468 13.142 9.78993C13.2793 9.83493 13.5032 9.84055 15.1783 9.84055C16.7859 9.84055 17.0818 9.8338 17.2145 9.79443C17.5464 9.69543 17.7084 9.43443 17.7095 8.99905C17.7095 8.56593 17.5442 8.30605 17.201 8.20255C17.0852 8.16768 16.7218 8.16093 15.1828 8.16318C14.15 8.16543 13.2635 8.17668 13.2129 8.18793ZM5.45942 11.5674C5.32104 11.6316 5.08479 11.8532 3.95754 12.9838C2.92142 14.0222 2.60529 14.3574 2.55467 14.4677C2.51282 14.5591 2.49126 14.6586 2.49145 14.7592C2.49165 14.8598 2.5136 14.9591 2.55579 15.0504C2.63454 15.2192 2.89329 15.4847 3.06767 15.5758C3.24429 15.6681 3.50642 15.6669 3.68979 15.5736C3.87767 15.4768 6.47642 12.8781 6.57317 12.6902C6.6191 12.5934 6.6432 12.4877 6.64379 12.3806C6.64437 12.2735 6.62141 12.1676 6.57654 12.0703C6.45203 11.8621 6.27617 11.6893 6.06579 11.5686C5.97266 11.5184 5.86855 11.492 5.76275 11.4918C5.65694 11.4916 5.55274 11.5176 5.45942 11.5674ZM12.0969 11.5494C11.9192 11.6304 11.657 11.8869 11.5659 12.0692C11.519 12.1602 11.4935 12.2606 11.4911 12.3629C11.4888 12.4653 11.5097 12.5668 11.5524 12.6598C11.6357 12.8454 14.2502 15.4689 14.456 15.5736C14.7485 15.7236 15.0459 15.6508 15.3482 15.3553C15.6452 15.0651 15.7239 14.7501 15.5732 14.4564C15.4685 14.2506 12.845 11.6361 12.6594 11.5528C12.5707 11.5145 12.4751 11.4945 12.3785 11.4939C12.2819 11.4933 12.1861 11.5122 12.0969 11.5494ZM8.71292 12.6868C8.56097 12.7297 8.42365 12.8134 8.31579 12.9287C8.16054 13.1379 8.15942 13.1526 8.15942 15.1753C8.15942 16.7863 8.16617 17.0822 8.20554 17.2149C8.30304 17.5449 8.56779 17.7096 8.99979 17.7088C9.43179 17.7103 9.69654 17.5457 9.79404 17.2149C9.86379 16.9764 9.86267 13.3596 9.79179 13.1514C9.76987 13.0676 9.72992 12.9895 9.67474 12.9227C9.61956 12.8558 9.55047 12.8018 9.47229 12.7644C9.34854 12.6969 9.27654 12.6801 9.06392 12.6722C8.94673 12.6648 8.82909 12.6697 8.71292 12.6868Z" fill="#FFDA0C"/>
</g>
<defs>
<clipPath id="clip0_2154_146">
<rect width="18" height="18" fill="white"/>
</clipPath>
</defs>
</svg>
