<svg width="24" height="25" viewBox="0 0 24 25" fill="none" xmlns="http://www.w3.org/2000/svg">
<path d="M6.86852 3.21533H16.9209C21.6679 3.21533 22.1426 5.43524 22.4637 8.1438L23.7203 18.6151C24.1252 22.0496 23.0641 24.8559 18.1775 24.8559H5.62593C0.725387 24.8559 -0.335701 22.0496 0.083149 18.6151L1.33971 8.1438C1.64687 5.43524 2.12155 3.21533 6.86852 3.21533Z" fill="#FFB621"/>
<path d="M6.13525 6.04172V3.01669C6.13525 1.72025 7.53142 0.855957 9.62567 0.855957H13.8142C15.9084 0.855957 17.3046 1.72025 17.3046 3.01669V6.04172" fill="#131417"/>
<path d="M6.13525 6.04172V3.01669C6.13525 1.72025 7.53142 0.855957 9.62567 0.855957H13.8142C15.9084 0.855957 17.3046 1.72025 17.3046 3.01669V6.04172" stroke="#FFB621" stroke-width="1.5" stroke-linecap="round" stroke-linejoin="round"/>
<path d="M6.92066 19.0313C5.97983 19.1998 5.40425 18.5519 5.64777 17.581C5.89128 16.6101 6.84318 15.7342 7.78402 15.5658L9.75424 15.213C10.5567 15.0694 10.9829 15.5961 10.7504 16.5423C10.5124 17.4837 9.77085 18.2309 8.96283 18.3756L8.09948 18.5301L7.96112 19.0669C7.69547 20.1555 6.99814 20.8493 6.01303 21.0257L6.20673 20.24C6.78784 20.136 7.06456 19.8532 7.23059 19.1977L7.97772 16.191L7.61245 16.2564C7.07562 16.3525 6.51666 16.9134 6.38383 17.4492C6.25101 17.985 6.57753 18.3418 7.1199 18.2447L6.92066 19.0313ZM8.27104 17.8395L9.1344 17.6849C9.52734 17.6146 9.8926 17.168 10.0144 16.674C10.1416 16.1734 9.97008 15.8343 9.57715 15.9047L8.71379 16.0592L8.27104 17.8395Z" fill="white"/>
<path d="M11.7519 15.7144C11.4752 15.764 11.3091 15.5605 11.3866 15.2678C11.4586 14.9705 11.7408 14.6924 12.0175 14.6429C12.2942 14.5933 12.4547 14.7921 12.3828 15.0895C12.3108 15.3811 12.0231 15.6659 11.7519 15.7144ZM12.4118 18.0877L12.8366 18.2964C12.7591 18.4298 12.1005 19.5603 11.2483 19.7129C10.6838 19.814 10.4679 19.4544 10.6284 18.8169L11.2704 16.233L12.0009 16.1022L11.3589 18.6861C11.3257 18.8229 11.3036 19.0431 11.5139 19.0054C11.7796 18.9579 12.2734 18.3344 12.4118 18.0877Z" fill="white"/>
<path d="M16.0692 17.4525L16.4306 17.6757C16.3531 17.8034 15.6336 18.9278 14.8588 19.0665C14.3386 19.1596 14.1559 18.8453 14.3054 18.2553L14.6485 16.8741C14.7758 16.3677 14.5378 16.3079 14.3441 16.3426C13.7962 16.4407 13.4088 17.1074 13.3092 17.3016L12.7779 19.439L12.0418 19.5708L12.9495 15.9324L13.5914 15.8174L13.5416 16.3611C13.8516 16.0098 14.25 15.6995 14.7149 15.6163C15.368 15.4994 15.5838 15.9215 15.379 16.7433L15.0359 18.1245C14.9861 18.3383 15.047 18.3729 15.1245 18.359C15.3237 18.3233 15.8755 17.7716 16.0692 17.4525Z" fill="white"/>
<path d="M17.0912 14.7585C16.8145 14.808 16.6485 14.6045 16.726 14.3119C16.7979 14.0146 17.0801 13.7365 17.3569 13.6869C17.6336 13.6374 17.7941 13.8362 17.7221 14.1335C17.6502 14.4252 17.3624 14.71 17.0912 14.7585ZM17.6447 17.1796L18.1759 17.3405C18.0985 17.4738 17.4399 18.6044 16.5876 18.757C16.0231 18.858 15.8073 18.4985 15.9677 17.861L16.6097 15.2771L17.3403 15.1463L16.6983 17.7302C16.6651 17.867 16.6429 18.0871 16.8532 18.0495C17.1189 18.0019 17.5063 17.4263 17.6447 17.1796Z" fill="white"/>
<path d="M13.2774 11.8126L13.781 12.024C13.698 12.1526 12.9785 13.277 12.2092 13.4147C11.8384 13.4811 11.6392 13.3404 11.606 13.0391C11.3237 13.3912 10.9695 13.6366 10.5545 13.711C9.77412 13.8507 9.49187 13.173 9.75198 12.1195C10.0176 11.065 10.6817 10.2122 11.4566 10.0735C11.8329 10.0061 12.0764 10.1104 12.2203 10.3293L12.414 9.90209L13.056 9.78715L12.3863 12.4728C12.331 12.6875 12.3863 12.7231 12.4693 12.7082C12.663 12.6735 13.0781 12.1441 13.2774 11.8126ZM11.8661 11.741C12.0211 11.1273 11.8329 10.666 11.4566 10.7334C11.0525 10.8058 10.6541 11.3208 10.488 11.9877C10.322 12.6489 10.488 13.0629 10.8976 12.9896C11.2684 12.9232 11.7167 12.348 11.8661 11.741Z" fill="white"/>
<path d="M16.6528 11.2083L17.1564 11.4196C17.0789 11.5473 16.3595 12.6717 15.5847 12.8104C15.0644 12.9035 14.8818 12.5892 15.0312 11.9992L15.3743 10.618C15.5016 10.1116 15.2637 10.0518 15.07 10.0865C14.5221 10.1846 14.1347 10.8513 14.035 11.0455L13.5037 13.1829L12.7677 13.3147L13.6753 9.67627L14.3173 9.56134L14.2675 10.105C14.5774 9.7537 14.9759 9.44343 15.4408 9.36019C16.0938 9.24328 16.3097 9.66544 16.1049 10.4872L15.7618 11.8684C15.7119 12.0822 15.7728 12.1168 15.8503 12.1029C16.0495 12.0672 16.4591 11.5274 16.6528 11.2083Z" fill="white"/>
<path d="M17.5957 8.54203C17.319 8.59157 17.1529 8.38805 17.2304 8.09542C17.3024 7.79809 17.5846 7.52 17.8613 7.47046C18.1381 7.42092 18.2986 7.61974 18.2266 7.91707C18.1547 8.20871 17.8669 8.49348 17.5957 8.54203ZM18.1491 10.9631L18.6804 11.124C18.6029 11.2574 17.9444 12.3879 17.0921 12.5405C16.5276 12.6416 16.3117 12.282 16.4722 11.6445L17.1142 9.06059L17.8447 8.9298L17.2028 11.5137C17.1695 11.6505 17.1474 11.8707 17.3577 11.833C17.6234 11.7855 18.0108 11.2098 18.1491 10.9631Z" fill="white"/>
<path d="M6.04753 12.8489C5.1067 13.0173 4.53113 12.3694 4.77464 11.3985C5.01815 10.4276 5.97005 9.5518 6.91089 9.38335L8.01222 9.18618L7.45879 11.4072C8.20593 11.3076 8.68741 11.3636 8.99734 11.4674L9.18946 10.6263C9.51499 9.24229 10.0959 8.95772 11.081 8.78135L10.9094 9.47198C10.3283 9.57602 10.0516 9.85881 9.89109 10.5133L9.04161 14.0992L8.30554 14.2309L8.78703 12.2958C8.67635 12.2133 8.30554 12.0521 7.25956 12.1938L7.08799 12.8845C6.82234 13.9731 6.15269 14.5709 5.16204 14.7482L5.33361 14.0576C5.91471 13.9536 6.19143 13.6708 6.35746 13.0153L7.10459 10.0086L6.73933 10.074C6.2025 10.1701 5.64353 10.731 5.5107 11.2668C5.37788 11.8025 5.70441 12.1594 6.24677 12.0623L6.04753 12.8489Z" fill="white"/>
<path d="M12.2387 14.2116C12.6356 14.2707 12.8465 14.2819 13.2459 14.4144L16.5626 13.5761C16.2158 14.6714 15.3258 15.1881 14.2733 15.3426C13.7642 15.3949 13.3776 15.2396 13.007 14.8685L12.7957 14.663C12.1917 14.1842 10.1538 14.5912 7.0704 15.3172L6.87955 15.3428C6.4489 15.3338 6.56231 14.7959 6.72645 14.7444C6.89058 14.6928 6.89224 14.699 6.96759 14.6851C7.04294 14.6712 11.0256 14.0752 12.2387 14.2116Z" fill="#CBC9C9"/>
</svg>
