<svg width="24" height="25" viewBox="0 0 24 25" fill="none" xmlns="http://www.w3.org/2000/svg">
<path d="M6.86852 3.35938H16.9209C21.6679 3.35938 22.1426 5.57928 22.4637 8.28784L23.7203 18.7591C24.1252 22.1937 23.0641 25 18.1775 25H5.62593C0.725387 25 -0.335701 22.1937 0.083149 18.7591L1.33971 8.28784C1.64687 5.57928 2.12155 3.35938 6.86852 3.35938Z" fill="#FFB621"/>
<path d="M6.13525 6.18576V3.16073C6.13525 1.86429 7.53142 1 9.62567 1H13.8142C15.9084 1 17.3046 1.86429 17.3046 3.16073V6.18576" fill="#131417"/>
<path d="M6.13525 6.18576V3.16073C6.13525 1.86429 7.53142 1 9.62567 1H13.8142C15.9084 1 17.3046 1.86429 17.3046 3.16073V6.18576" stroke="#FFB621" stroke-width="1.5" stroke-linecap="round" stroke-linejoin="round"/>
<path d="M6.92066 19.1754C5.97983 19.3438 5.40425 18.6959 5.64777 17.725C5.89128 16.7541 6.84318 15.8783 7.78402 15.7098L9.75424 15.3571C10.5567 15.2134 10.9829 15.7402 10.7504 16.6863C10.5124 17.6278 9.77085 18.3749 8.96283 18.5196L8.09948 18.6742L7.96112 19.211C7.69547 20.2996 6.99814 20.9933 6.01303 21.1697L6.20673 20.3841C6.78784 20.28 7.06456 19.9973 7.23059 19.3417L7.97772 16.3351L7.61245 16.4005C7.07562 16.4966 6.51666 17.0575 6.38383 17.5932C6.25101 18.129 6.57753 18.4859 7.1199 18.3888L6.92066 19.1754ZM8.27104 17.9835L9.1344 17.829C9.52734 17.7586 9.8926 17.3121 10.0144 16.8181C10.1416 16.3174 9.97008 15.9784 9.57715 16.0487L8.71379 16.2033L8.27104 17.9835Z" fill="white"/>
<path d="M11.7519 15.8585C11.4752 15.908 11.3091 15.7045 11.3866 15.4119C11.4586 15.1145 11.7408 14.8364 12.0175 14.7869C12.2942 14.7374 12.4547 14.9362 12.3828 15.2335C12.3108 15.5252 12.0231 15.8099 11.7519 15.8585ZM12.4118 18.2318L12.8366 18.4405C12.7591 18.5738 12.1005 19.7044 11.2483 19.8569C10.6838 19.958 10.4679 19.5984 10.6284 18.961L11.2704 16.377L12.0009 16.2462L11.3589 18.8302C11.3257 18.967 11.3036 19.1871 11.5139 19.1495C11.7796 19.1019 12.2734 18.4784 12.4118 18.2318Z" fill="white"/>
<path d="M16.0692 17.5966L16.4306 17.8198C16.3531 17.9474 15.6336 19.0718 14.8588 19.2105C14.3386 19.3037 14.1559 18.9893 14.3054 18.3994L14.6485 17.0181C14.7758 16.5118 14.5378 16.452 14.3441 16.4867C13.7962 16.5847 13.4088 17.2514 13.3092 17.4456L12.7779 19.5831L12.0418 19.7149L12.9495 16.0764L13.5914 15.9615L13.5416 16.5052C13.8516 16.1539 14.25 15.8436 14.7149 15.7603C15.368 15.6434 15.5838 16.0656 15.379 16.8873L15.0359 18.2686C14.9861 18.4823 15.047 18.5169 15.1245 18.503C15.3237 18.4674 15.8755 17.9157 16.0692 17.5966Z" fill="white"/>
<path d="M17.0912 14.9025C16.8145 14.9521 16.6485 14.7486 16.726 14.4559C16.7979 14.1586 17.0801 13.8805 17.3569 13.831C17.6336 13.7814 17.7941 13.9803 17.7221 14.2776C17.6502 14.5692 17.3624 14.854 17.0912 14.9025ZM17.6447 17.3237L18.1759 17.4845C18.0985 17.6179 17.4399 18.7484 16.5876 18.901C16.0231 19.0021 15.8073 18.6425 15.9677 18.005L16.6097 15.4211L17.3403 15.2903L16.6983 17.8743C16.6651 18.011 16.6429 18.2312 16.8532 18.1935C17.1189 18.146 17.5063 17.5703 17.6447 17.3237Z" fill="white"/>
<path d="M13.2774 11.9566L13.781 12.168C13.698 12.2966 12.9785 13.421 12.2092 13.5587C11.8384 13.6251 11.6392 13.4844 11.606 13.1832C11.3237 13.5352 10.9695 13.7807 10.5545 13.855C9.77412 13.9947 9.49187 13.3171 9.75198 12.2635C10.0176 11.209 10.6817 10.3563 11.4566 10.2175C11.8329 10.1502 12.0764 10.2545 12.2203 10.4733L12.414 10.0461L13.056 9.9312L12.3863 12.6168C12.331 12.8315 12.3863 12.8671 12.4693 12.8522C12.663 12.8176 13.0781 12.2881 13.2774 11.9566ZM11.8661 11.885C12.0211 11.2713 11.8329 10.8101 11.4566 10.8775C11.0525 10.9498 10.6541 11.4649 10.488 12.1318C10.322 12.793 10.488 13.207 10.8976 13.1336C11.2684 13.0673 11.7167 12.4921 11.8661 11.885Z" fill="white"/>
<path d="M16.6528 11.3523L17.1564 11.5637C17.0789 11.6913 16.3595 12.8157 15.5847 12.9544C15.0644 13.0476 14.8818 12.7332 15.0312 12.1433L15.3743 10.762C15.5016 10.2557 15.2637 10.1959 15.07 10.2305C14.5221 10.3286 14.1347 10.9953 14.035 11.1895L13.5037 13.327L12.7677 13.4588L13.6753 9.82032L14.3173 9.70538L14.2675 10.2491C14.5774 9.89774 14.9759 9.58747 15.4408 9.50424C16.0938 9.38732 16.3097 9.80948 16.1049 10.6312L15.7618 12.0125C15.7119 12.2262 15.7728 12.2608 15.8503 12.2469C16.0495 12.2113 16.4591 11.6715 16.6528 11.3523Z" fill="white"/>
<path d="M17.5957 8.68607C17.319 8.73561 17.1529 8.53209 17.2304 8.23946C17.3024 7.94213 17.5846 7.66404 17.8613 7.6145C18.1381 7.56496 18.2986 7.76378 18.2266 8.06111C18.1547 8.35275 17.8669 8.63752 17.5957 8.68607ZM18.1491 11.1072L18.6804 11.2681C18.6029 11.4014 17.9444 12.5319 17.0921 12.6845C16.5276 12.7856 16.3117 12.426 16.4722 11.7886L17.1142 9.20463L17.8447 9.07384L17.2028 11.6578C17.1695 11.7946 17.1474 12.0147 17.3577 11.9771C17.6234 11.9295 18.0108 11.3538 18.1491 11.1072Z" fill="white"/>
<path d="M6.04753 12.9929C5.1067 13.1614 4.53113 12.5135 4.77464 11.5426C5.01815 10.5717 5.97005 9.69584 6.91089 9.5274L8.01222 9.33022L7.45879 11.5513C8.20593 11.4516 8.68741 11.5077 8.99734 11.6115L9.18946 10.7703C9.51499 9.38633 10.0959 9.10176 11.081 8.92539L10.9094 9.61603C10.3283 9.72006 10.0516 10.0029 9.89109 10.6574L9.04161 14.2432L8.30554 14.375L8.78703 12.4399C8.67635 12.3573 8.30554 12.1961 7.25956 12.3379L7.08799 13.0285C6.82234 14.1172 6.15269 14.7149 5.16204 14.8923L5.33361 14.2016C5.91471 14.0976 6.19143 13.8148 6.35746 13.1593L7.10459 10.1526L6.73933 10.218C6.2025 10.3141 5.64353 10.875 5.5107 11.4108C5.37788 11.9466 5.70441 12.3034 6.24677 12.2063L6.04753 12.9929Z" fill="white"/>
<path d="M12.2387 14.3556C12.6356 14.4148 12.8465 14.426 13.2459 14.5585L16.5626 13.7202C16.2158 14.8154 15.3258 15.3322 14.2733 15.4866C13.7642 15.5389 13.3776 15.3837 13.007 15.0126L12.7957 14.8071C12.1917 14.3282 10.1538 14.7353 7.0704 15.4613L6.87955 15.4868C6.4489 15.4779 6.56231 14.94 6.72645 14.8884C6.89058 14.8369 6.89224 14.8431 6.96759 14.8291C7.04294 14.8152 11.0256 14.2193 12.2387 14.3556Z" fill="#CBC9C9"/>
</svg>
