<svg width="94" height="94" viewBox="0 0 94 94" fill="none" xmlns="http://www.w3.org/2000/svg">
<path d="M42.5938 66.0203V48.4688C42.5938 48.0792 42.4391 47.7056 42.1636 47.4302C41.8882 47.1547 41.5146 47 41.1251 47C32.1547 47 30.8971 62.3912 30.8479 63.0461C30.8261 63.3368 30.8912 63.6273 31.0351 63.8808C31.1789 64.1344 31.395 64.3393 31.6557 64.4697L33.7813 65.5327V66.021L32.643 77.4053C32.5818 78.0179 32.6496 78.6365 32.842 79.2212C33.0345 79.8059 33.3473 80.3439 33.7604 80.8003C34.1734 81.2568 34.6775 81.6216 35.2402 81.8713C35.8029 82.121 36.4117 82.25 37.0273 82.25H39.3479C39.9635 82.25 40.5722 82.121 41.1349 81.8713C41.6976 81.6216 42.2017 81.2568 42.6148 80.8003C43.0279 80.3439 43.3407 79.8059 43.5331 79.2212C43.7256 78.6365 43.7934 78.0179 43.7321 77.4053L42.5938 66.0203ZM33.8821 62.2989C34.1367 60.2394 34.5895 58.2093 35.2343 56.2368C36.363 52.9154 37.8461 50.8942 39.6563 50.2052V64.625H36.7188C36.7188 64.3523 36.6429 64.0849 36.4995 63.8529C36.3561 63.6209 36.1509 63.4334 35.907 63.3114L33.8821 62.2989ZM40.4364 78.8293C40.2994 78.9822 40.1316 79.1043 39.944 79.1876C39.7563 79.2709 39.5532 79.3135 39.3479 79.3125H37.0273C36.822 79.3125 36.619 79.2695 36.4313 79.1863C36.2437 79.103 36.0756 78.9813 35.9379 78.8291C35.8002 78.6769 35.6959 78.4974 35.6318 78.3024C35.5677 78.1074 35.5451 77.9011 35.5657 77.6969L36.5793 67.5625H39.7959L40.8095 77.6969C40.8311 77.9012 40.809 78.1079 40.7448 78.3031C40.6806 78.4983 40.5757 78.6776 40.437 78.8293H40.4364Z" fill="white"/>
<path d="M89.5938 1.46875H77.8438C77.4542 1.46875 77.0806 1.62349 76.8052 1.89894C76.5297 2.17438 76.375 2.54796 76.375 2.9375V4.40625H45.7115C44.3837 4.40718 43.0773 4.7403 41.9111 5.37526L27.5315 13.2188H10.2812C7.81045 13.2188 5.875 15.7993 5.875 19.0938C5.875 22.1686 7.56131 24.6199 9.79491 24.9341L3.17305 47.3508C3.16718 47.3709 3.16167 47.3911 3.15653 47.4111C3.01113 47.9935 2.93758 48.5916 2.9375 49.1919V91.0625C2.9375 91.452 3.09224 91.8256 3.36769 92.1011C3.64313 92.3765 4.01671 92.5312 4.40625 92.5312H70.5C70.8895 92.5312 71.2631 92.3765 71.5386 92.1011C71.814 91.8256 71.9688 91.452 71.9688 91.0625V49.3148C71.9689 48.6133 71.8684 47.9154 71.6702 47.2425L65.5507 26.4362C67.5436 26.4216 69.4582 25.6587 70.915 24.2987C72.3718 22.9387 73.2643 21.0809 73.4157 19.0938H76.375V22.0312C76.375 22.4208 76.5297 22.7944 76.8052 23.0698C77.0806 23.3453 77.4542 23.5 77.8438 23.5H89.5938C89.9833 23.5 90.3569 23.3453 90.6323 23.0698C90.9078 22.7944 91.0625 22.4208 91.0625 22.0312V2.9375C91.0625 2.54796 90.9078 2.17438 90.6323 1.89894C90.3569 1.62349 89.9833 1.46875 89.5938 1.46875ZM8.8125 19.0938C8.8125 17.3006 9.68237 16.1562 10.2812 16.1562H52.2668L46.3918 22.0312H10.2812C9.68237 22.0312 8.8125 20.8869 8.8125 19.0938ZM54.5628 47.4112C54.4174 47.9937 54.3438 48.5918 54.3438 49.1921V89.5938H5.875V49.1919C5.87514 48.8413 5.91699 48.492 5.99966 48.1513L12.8475 24.9688H43.7344C42.9677 26.2642 42.6766 27.7864 42.9113 29.2733C43.1459 30.7602 43.8916 32.1188 45.02 33.1151C46.1484 34.1115 47.5889 34.6832 49.0934 34.732C50.598 34.7807 52.0724 34.3034 53.2629 33.3821L60.3289 27.8859L54.5793 47.351C54.5734 47.371 54.5679 47.3912 54.5628 47.4112ZM63.1562 85.7959L66.9541 89.5938H59.3584L63.1562 85.7959ZM68.8522 48.072C68.9711 48.4756 69.0313 48.8941 69.0312 49.3148V87.5166L64.625 83.1103V51.4062C64.625 51.0167 64.4703 50.6431 64.1948 50.3677C63.9194 50.0922 63.5458 49.9375 63.1562 49.9375C62.7667 49.9375 62.3931 50.0922 62.1177 50.3677C61.8422 50.6431 61.6875 51.0167 61.6875 51.4062V83.1105L57.2812 87.5168V49.1919C57.2814 48.8413 57.3232 48.492 57.4059 48.1513L63.1524 28.6948L68.8522 48.072ZM76.375 16.1562H72.845C72.2233 16.157 71.6273 16.4043 71.1877 16.8439C70.748 17.2835 70.5007 17.8796 70.5 18.5013C70.4985 19.8266 69.9714 21.0971 69.0342 22.0342C68.0971 22.9714 66.8266 23.4985 65.5013 23.5H61.8907C61.4325 23.5008 60.9876 23.6535 60.6254 23.9342L51.4591 31.0641C50.7502 31.616 49.8575 31.8768 48.9629 31.7934C48.0683 31.7099 47.2392 31.2885 46.6446 30.615C46.05 29.9414 45.7346 29.0665 45.7627 28.1685C45.7908 27.2704 46.1603 26.4169 46.7958 25.7819L56.8509 15.7266C57.0565 15.5213 57.1966 15.2595 57.2533 14.9745C57.3101 14.6895 57.2811 14.3941 57.1699 14.1256C57.0588 13.8571 56.8705 13.6276 56.6288 13.4662C56.3872 13.3048 56.1031 13.2187 55.8125 13.2188H33.6663L43.318 7.95402C44.0525 7.5541 44.8753 7.34431 45.7115 7.34375H76.375V16.1562ZM88.125 20.5625H79.3125V4.40625H88.125V20.5625Z" fill="white"/>
<path d="M29.375 48.4688C29.375 48.0792 29.2203 47.7056 28.9448 47.4302C28.6694 47.1547 28.2958 47 27.9062 47C27.5167 47 27.1431 47.1547 26.8677 47.4302C26.5922 47.7056 26.4375 48.0792 26.4375 48.4688V52.875H23.5V48.4688C23.5 48.0792 23.3453 47.7056 23.0698 47.4302C22.7944 47.1547 22.4208 47 22.0312 47C21.6417 47 21.2681 47.1547 20.9927 47.4302C20.7172 47.7056 20.5625 48.0792 20.5625 48.4688V52.875H17.625V48.4688C17.625 48.0792 17.4703 47.7056 17.1948 47.4302C16.9194 47.1547 16.5458 47 16.1562 47C15.7667 47 15.3931 47.1547 15.1177 47.4302C14.8422 47.7056 14.6875 48.0792 14.6875 48.4688V54.3438H14.6903C14.6892 54.5716 14.7414 54.7965 14.8426 55.0006L17.6 60.5156L16.3848 77.5298C16.3417 78.1334 16.4234 78.7393 16.6247 79.3099C16.8261 79.8805 17.1428 80.4036 17.5551 80.8464C17.9674 81.2892 18.4666 81.6424 19.0214 81.8839C19.5762 82.1254 20.1748 82.25 20.7799 82.25H23.2826C23.8877 82.25 24.4863 82.1254 25.0411 81.8839C25.5959 81.6424 26.0951 81.2892 26.5074 80.8464C26.9197 80.4036 27.2364 79.8805 27.4378 79.3099C27.6391 78.7393 27.7208 78.1334 27.6777 77.5298L26.4625 60.5156L29.2199 55.0006C29.3211 54.7965 29.3733 54.5716 29.3722 54.3438H29.375V48.4688ZM25.5298 55.8125L24.0611 58.75H20.0014L18.5327 55.8125H25.5298ZM24.3577 78.8445C24.2209 78.9929 24.0546 79.1111 23.8695 79.1917C23.6844 79.2723 23.4845 79.3134 23.2826 79.3125H20.7799C20.5782 79.3125 20.3787 79.271 20.1937 79.1905C20.0088 79.11 19.8424 78.9923 19.705 78.8447C19.5675 78.6971 19.462 78.5228 19.3948 78.3326C19.3277 78.1424 19.3005 77.9405 19.3148 77.7393L20.4613 61.6875H23.6008L24.7473 77.7393C24.7626 77.9405 24.7359 78.1426 24.6688 78.3329C24.6018 78.5232 24.4958 78.6974 24.3577 78.8445Z" fill="white"/>
</svg>
