<svg width="31" height="31" viewBox="0 0 31 31" fill="none" xmlns="http://www.w3.org/2000/svg">
<path d="M15.0071 23.2986C14.1042 24.1968 14.1042 25.6639 15.0024 26.5621L16.0887 27.6484C16.9869 28.5466 18.454 28.5466 19.3522 27.6484L29.8717 17.1337C30.309 16.6963 30.5488 16.1179 30.5488 15.5019C30.5488 14.8859 30.309 14.3028 29.8717 13.8701L19.3522 3.35538C18.9008 2.90394 18.313 2.67822 17.7205 2.67822C17.1279 2.67822 16.5402 2.90394 16.0887 3.35538L15.0024 4.43693C14.1042 5.3398 14.1042 6.80231 15.0071 7.70519L22.8039 15.5019L15.0071 23.2986Z" fill="white"/>
<path d="M8.92761 15.5007L1.1276 7.703C0.227509 6.80315 0.227264 5.33864 1.12711 4.43855L2.2109 3.35434C2.2109 3.35434 2.2109 3.35434 2.21114 3.35434C3.11202 2.45298 4.57326 2.45158 5.47559 3.35385L15.9932 13.8682C16.4293 14.3042 16.6694 14.884 16.6694 15.5007C16.6694 16.1174 16.4292 16.6972 15.9932 17.1331L5.47553 27.6476C4.5738 28.5493 3.10942 28.5457 2.21108 27.6473L1.12705 26.5629C0.225206 25.661 0.224964 24.2005 1.12754 23.2984L8.92761 15.5007ZM1.7921 25.8979L2.87613 26.9823C3.40931 27.5159 4.277 27.5162 4.8106 26.9826L15.3283 16.4681C15.5866 16.2098 15.729 15.866 15.729 15.5007C15.729 15.1352 15.5867 14.7916 15.3283 14.5331L4.8106 4.0189C4.27688 3.48518 3.4104 3.48433 2.87631 4.01939H2.87607L1.79204 5.1036C1.25886 5.63702 1.25911 6.50471 1.79252 7.03807L9.92524 15.1682C10.0134 15.2564 10.063 15.376 10.063 15.5007C10.063 15.6254 10.0134 15.745 9.92524 15.8332L1.79258 23.9634C1.25723 24.4987 1.2582 25.364 1.7921 25.8979Z" fill="white"/>
</svg>
