<svg width="19" height="18" viewBox="0 0 19 18" fill="none" xmlns="http://www.w3.org/2000/svg">
<path d="M13.9361 4.46914C13.9361 6.93784 11.9356 8.93828 9.46695 8.93828C6.99824 8.93828 4.9978 6.93784 4.9978 4.46914C4.9978 2.00044 6.99824 0 9.46695 0C11.9356 0 13.9361 2.00044 13.9361 4.46914Z" fill="#999999"/>
<path d="M14.3459 8.84375C14.3459 8.84375 9.46696 12.5631 4.58508 8.84375C1.88729 10.0268 0 12.7214 0 15.8577C0 17.0407 0.95913 17.9998 2.14214 17.9998H16.788C17.9711 17.9998 18.9302 17.0407 18.9302 15.8577C18.9302 12.7214 17.0448 10.0289 14.3451 8.84375H14.3459Z" fill="#999999"/>
</svg>
