<svg width="28" height="28" viewBox="0 0 28 28" fill="none" xmlns="http://www.w3.org/2000/svg">
<path d="M25.6668 9.11183V18.8885C25.6668 22.1668 24.1618 24.4185 21.5135 25.2701C20.7435 25.5385 19.8568 25.6668 18.8885 25.6668H9.11183C8.14349 25.6668 7.25683 25.5385 6.48683 25.2701C3.83849 24.4185 2.3335 22.1668 2.3335 18.8885V9.11183C2.3335 4.86516 4.86516 2.3335 9.11183 2.3335H18.8885C23.1352 2.3335 25.6668 4.86516 25.6668 9.11183Z" fill="#999999" fill-opacity="0.25"/>
<path d="M21.5135 24.27C20.7435 24.5383 19.8568 24.6667 18.8885 24.6667H9.11182C8.14348 24.6667 7.25682 24.5383 6.48682 24.27C6.89515 21.19 10.1152 18.7983 14.0002 18.7983C17.8852 18.7983 21.1052 21.19 21.5135 24.27Z" fill="#999999"/>
<path d="M18.1766 12.5102C18.1766 14.8202 16.3099 16.6985 13.9999 16.6985C11.6899 16.6985 9.82324 14.8202 9.82324 12.5102C9.82324 10.2002 11.6899 8.3335 13.9999 8.3335C16.3099 8.3335 18.1766 10.2002 18.1766 12.5102Z" fill="#999999"/>
</svg>
