<svg width="28" height="29" viewBox="0 0 28 29" fill="none" xmlns="http://www.w3.org/2000/svg">
<path d="M25.6663 9.96778V19.7445C25.6663 23.0228 24.1613 25.2744 21.513 26.1261C20.743 26.3944 19.8563 26.5228 18.888 26.5228H9.11134C8.14301 26.5228 7.25634 26.3944 6.48634 26.1261C3.83801 25.2744 2.33301 23.0228 2.33301 19.7445V9.96778C2.33301 5.72112 4.86467 3.18945 9.11134 3.18945H18.888C23.1347 3.18945 25.6663 5.72112 25.6663 9.96778Z" fill="#999999" fill-opacity="0.25"/>
<path d="M21.513 25.126C20.743 25.3943 19.8563 25.5227 18.888 25.5227H9.11133C8.14299 25.5227 7.25633 25.3943 6.48633 25.126C6.89466 22.046 10.1147 19.6543 13.9997 19.6543C17.8847 19.6543 21.1047 22.046 21.513 25.126Z" fill="#F6A730"/>
<path d="M18.1766 13.3661C18.1766 15.6761 16.3099 17.5544 13.9999 17.5544C11.6899 17.5544 9.82324 15.6761 9.82324 13.3661C9.82324 11.0561 11.6899 9.18945 13.9999 9.18945C16.3099 9.18945 18.1766 11.0561 18.1766 13.3661Z" fill="#F6A730"/>
</svg>
