<svg width="73" height="70" viewBox="0 0 73 70" fill="none" xmlns="http://www.w3.org/2000/svg">
<path id="Vector" fill-rule="evenodd" clip-rule="evenodd" d="M69.9938 39.9052H59.2495C56.2055 39.9052 53.7373 42.3692 53.7373 45.408C53.7373 48.4467 56.2055 50.9107 59.2495 50.9107H69.9938V39.9052ZM59.2495 36.9014C54.5452 36.9014 50.7281 40.7117 50.7281 45.4081C50.7281 50.1043 54.545 53.9116 59.2495 53.9116H63.6294V63.7864C63.623 65.555 62.1853 66.9903 60.4136 66.9966H6.23289C4.4612 66.9902 3.02353 65.555 3.01718 63.7864V22.8061C3.44976 22.9744 3.90457 23.0729 4.36903 23.0983H4.45809H12.7661L60.7511 23.1141H60.7479C62.3351 23.1268 63.6201 24.4129 63.6297 25.9973V36.9012L59.2495 36.9014ZM31.7491 57.3118H10.5178V61.1572L31.7491 61.154V57.3118ZM10.4633 54.308C8.83473 54.3144 7.51472 55.6321 7.51154 57.2579V61.208C7.51472 62.8369 8.83791 64.1546 10.4664 64.1578H31.8028C33.4313 64.1546 34.7545 62.8337 34.7577 61.208V57.2579C34.7545 55.6321 33.4313 54.3112 31.8028 54.308H10.4633ZM60.9831 44.2837C61.4284 44.725 61.4952 45.4172 61.1485 45.9348C60.7986 46.4555 60.1338 46.6556 59.5549 46.4174C58.9761 46.1793 58.6484 45.5664 58.7693 44.9536C58.8933 44.3408 59.4309 43.8994 60.0575 43.8994C60.4042 43.8994 60.7382 44.036 60.9831 44.2837ZM60.0575 40.8956C62.1186 40.8956 63.8934 42.3499 64.2942 44.3662C64.6982 46.3857 63.6167 48.4052 61.7114 49.1926C59.8062 49.9801 57.6114 49.3164 56.4664 47.605C55.3214 45.8935 55.544 43.6136 57.0039 42.1594C57.8119 41.3497 58.9125 40.8956 60.0575 40.8956ZM59.2528 9.75267V3.38941L5.52718 15.8654L5.46675 15.8813V15.8781C4.5125 15.9861 3.66648 16.5386 3.18614 17.3673C3.0939 17.5642 3.03665 17.7737 3.01438 17.9896V18.4405C3.04936 18.7454 3.14479 19.0375 3.30064 19.3011C3.55192 19.7615 4.01949 20.0695 4.54428 20.1139H12.5725L59.253 9.74977L59.2528 9.75267ZM59.2528 20.1331L26.3579 20.1204L59.2528 12.8172V20.1331ZM62.2522 1.61173V10.442C62.2713 10.496 62.2872 10.5499 62.2999 10.6071C62.3603 10.877 62.3444 11.1564 62.2522 11.42V20.3201C64.835 21.006 66.6321 23.3335 66.6384 26.0008V36.9014H71.4986H71.4955C72.3288 36.9014 73 37.5746 73 38.4034V52.4124C73 52.8093 72.841 53.1904 72.5611 53.473C72.278 53.7556 71.8963 53.9112 71.4955 53.9112H66.6385V63.786C66.629 67.2121 63.8458 69.9905 60.4139 70H6.2331C2.79785 69.9905 0.0179344 67.2153 0.00840745 63.786V18.4869C-0.0393039 17.6709 0.116551 16.8548 0.463251 16.1118C1.32206 14.413 2.94743 13.2349 4.83043 12.946H4.84633L60.4138 0.0384068C60.8018 -0.0505054 61.209 0.0161797 61.5493 0.22575C61.8864 0.435317 62.1282 0.771905 62.2172 1.15926C62.2522 1.30532 62.265 1.45773 62.2522 1.61015L62.2522 1.61173Z" fill="#F6A730"/>
</svg>
